<svg xmlns="http://www.w3.org/2000/svg" version="1.1" xmlns:xlink="http://www.w3.org/1999/xlink" xmlns:svgjs="http://svgjs.com/svgjs" width="512" height="512" x="0" y="0" viewBox="0 0 682.66669 682.66669" style="enable-background:new 0 0 512 512" xml:space="preserve"><g><defs id="defs2287"><clipPath clipPathUnits="userSpaceOnUse" id="clipPath2297"><path d="M 0,512 H 512 V 0 H 0 Z" id="path2295" fill="#C49850" data-original="#000000"></path></clipPath></defs><g id="g2289" transform="matrix(1.3333333,0,0,-1.3333333,0,682.66667)"><g id="g2291"><g id="g2293" clip-path="url(#clipPath2297)"><g id="g2299" transform="translate(380.2216,9.502)"><path d="M 0,0 V 135.339" style="stroke-linecap: round; stroke-linejoin: round; stroke-miterlimit: 10; stroke-dasharray: none; stroke-opacity: 1;" id="path2301" fill="none" stroke="#C49850" stroke-width="15px" stroke-linecap="round" stroke-linejoin="round" stroke-miterlimit="10" stroke-dasharray="none" stroke-opacity="" data-original="#000000"></path></g><g id="g2303" transform="translate(131.7783,144.8409)"><path d="M 0,0 V -135.339" style="stroke-linecap: round; stroke-linejoin: round; stroke-miterlimit: 10; stroke-dasharray: none; stroke-opacity: 1;" id="path2305" fill="none" stroke="#C49850" stroke-width="15px" stroke-linecap="round" stroke-linejoin="round" stroke-miterlimit="10" stroke-dasharray="none" stroke-opacity="" data-original="#000000"></path></g><g id="g2307" transform="translate(283.1303,191.7154)"><path d="M 0,0 C 2.354,-3.487 7.203,-4.182 10.441,-1.496 L 50.94,32.089 c -17.362,6.724 -31.734,12.29 -33.544,12.991 -1.304,0.503 -2.391,1.371 -3.188,2.45 L -10.51,27.033 c -2.817,-2.336 -3.403,-6.429 -1.355,-9.461 z" style="stroke-linecap: round; stroke-linejoin: round; stroke-miterlimit: 10; stroke-dasharray: none; stroke-opacity: 1;" id="path2309" fill="none" stroke="#C49850" stroke-width="15px" stroke-linecap="round" stroke-linejoin="round" stroke-miterlimit="10" stroke-dasharray="none" stroke-opacity="" data-original="#000000"></path></g><g id="g2311" transform="translate(218.6089,190.2198)"><path d="m 0,0 c 3.238,-2.686 8.087,-1.991 10.441,1.496 l 11.865,17.571 c 2.048,3.033 1.462,7.125 -1.355,9.461 l -24.84,20.598 c -0.504,-0.664 -1.11,-1.201 -1.752,-1.637 L -40.737,33.782 Z" style="stroke-linecap: round; stroke-linejoin: round; stroke-miterlimit: 10; stroke-dasharray: none; stroke-opacity: 1;" id="path2313" fill="none" stroke="#C49850" stroke-width="15px" stroke-linecap="round" stroke-linejoin="round" stroke-miterlimit="10" stroke-dasharray="none" stroke-opacity="" data-original="#000000"></path></g><g id="g2315" transform="translate(269.7729,176.0821)"><path d="M 0,0 H -27.365 L -44.912,-168.58 H 17.546 Z" style="stroke-linecap: round; stroke-linejoin: round; stroke-miterlimit: 10; stroke-dasharray: none; stroke-opacity: 1;" id="path2317" fill="none" stroke="#C49850" stroke-width="15px" stroke-linecap="round" stroke-linejoin="round" stroke-miterlimit="10" stroke-dasharray="none" stroke-opacity="" data-original="#000000"></path></g><g id="g2319" transform="translate(228.9184,46.4805)"><path d="M 0,0 38.979,-38.979 H 58.4 l -2.715,26.095 -51.65,51.65 z" style="stroke-linecap: round; stroke-linejoin: round; stroke-miterlimit: 10; stroke-dasharray: none; stroke-opacity: 1;" id="path2321" fill="none" stroke="#C49850" stroke-width="15px" stroke-linecap="round" stroke-linejoin="round" stroke-miterlimit="10" stroke-dasharray="none" stroke-opacity="" data-original="#000000"></path></g><g id="g2323" transform="translate(236.8354,122.5455)"><path d="M 0,0 42.983,-42.983 38.011,4.79 4.035,38.766 Z" style="stroke-linecap: round; stroke-linejoin: round; stroke-miterlimit: 10; stroke-dasharray: none; stroke-opacity: 1;" id="path2325" fill="none" stroke="#C49850" stroke-width="15px" stroke-linecap="round" stroke-linejoin="round" stroke-miterlimit="10" stroke-dasharray="none" stroke-opacity="" data-original="#000000"></path></g><g id="g2327" transform="translate(271.2651,209.2871)"><path d="M 0,0 C -0.991,1.468 -1.36,3.183 -1.163,4.828 H -29.187 C -28.99,3.183 -29.359,1.468 -30.35,0 l -10.14,-15.017 11.633,-18.188 h 27.365 l 11.632,18.188 z" style="stroke-linecap: round; stroke-linejoin: round; stroke-miterlimit: 10; stroke-dasharray: none; stroke-opacity: 1;" id="path2329" fill="none" stroke="#C49850" stroke-width="15px" stroke-linecap="round" stroke-linejoin="round" stroke-miterlimit="10" stroke-dasharray="none" stroke-opacity="" data-original="#000000"></path></g><g id="g2331" transform="translate(353.7046,404.8926)"><path d="m 0,0 h -195.409 c -4.547,0 -8.233,-3.686 -8.233,-8.232 v -12.925 c 0,-4.547 3.686,-8.233 8.233,-8.233 H 0 c 4.547,0 8.232,3.686 8.232,8.233 V -8.232 C 8.232,-3.686 4.547,0 0,0 Z" style="stroke-linecap: round; stroke-linejoin: round; stroke-miterlimit: 10; stroke-dasharray: none; stroke-opacity: 1;" id="path2333" fill="none" stroke="#C49850" stroke-width="15px" stroke-linecap="round" stroke-linejoin="round" stroke-miterlimit="10" stroke-dasharray="none" stroke-opacity="" data-original="#000000"></path></g><g id="g2335" transform="translate(276.8613,404.8926)"><path d="m 0,0 h 67.097 v 5.985 c 0,41.196 -28.704,76.008 -67.099,85.436 C -0.002,91.405 0,91.389 0,91.373" style="stroke-linecap: round; stroke-linejoin: round; stroke-miterlimit: 10; stroke-dasharray: none; stroke-opacity: 1;" id="path2337" fill="none" stroke="#C49850" stroke-width="15px" stroke-linecap="round" stroke-linejoin="round" stroke-miterlimit="10" stroke-dasharray="none" stroke-opacity="" data-original="#000000"></path></g><g id="g2339" transform="translate(235.1387,404.8926)"><path d="m 0,0 v 91.373 c 0,0.016 0.002,0.032 0.002,0.049 C -38.392,81.993 -67.097,47.182 -67.097,5.985 V 0 Z" style="stroke-linecap: round; stroke-linejoin: round; stroke-miterlimit: 10; stroke-dasharray: none; stroke-opacity: 1;" id="path2341" fill="none" stroke="#C49850" stroke-width="15px" stroke-linecap="round" stroke-linejoin="round" stroke-miterlimit="10" stroke-dasharray="none" stroke-opacity="" data-original="#000000"></path></g><g id="g2343" transform="translate(351.0332,375.503)"><path d="m 0,0 h -22.816 v -48.675 c 0,-0.634 -0.032,-1.26 -0.048,-1.889 18.319,-1.949 33.5,11.468 33.5,27.869 C 10.636,-13.892 6.564,-5.491 0,0 Z" style="stroke-linecap: round; stroke-linejoin: round; stroke-miterlimit: 10; stroke-dasharray: none; stroke-opacity: 1;" id="path2345" fill="none" stroke="#C49850" stroke-width="15px" stroke-linecap="round" stroke-linejoin="round" stroke-miterlimit="10" stroke-dasharray="none" stroke-opacity="" data-original="#000000"></path></g><g id="g2347" transform="translate(183.7832,375.503)"><path d="m 0,0 v -48.675 c 0,-37.205 29.151,-71.186 73.247,-71.186 39.252,0 71.187,31.935 71.187,71.186 V 0 Z" style="stroke-linecap: round; stroke-linejoin: round; stroke-miterlimit: 10; stroke-dasharray: none; stroke-opacity: 1;" id="path2349" fill="none" stroke="#C49850" stroke-width="15px" stroke-linecap="round" stroke-linejoin="round" stroke-miterlimit="10" stroke-dasharray="none" stroke-opacity="" data-original="#000000"></path></g><g id="g2351" transform="translate(183.7832,375.503)"><path d="m 0,0 h -21.654 c -6.971,-5.338 -11.798,-13.732 -11.798,-22.79 0,-16.358 15.161,-29.777 33.498,-27.764 C 0.029,-49.928 0,-49.303 0,-48.675 Z" style="stroke-linecap: round; stroke-linejoin: round; stroke-miterlimit: 10; stroke-dasharray: none; stroke-opacity: 1;" id="path2353" fill="none" stroke="#C49850" stroke-width="15px" stroke-linecap="round" stroke-linejoin="round" stroke-miterlimit="10" stroke-dasharray="none" stroke-opacity="" data-original="#000000"></path></g><g id="g2355" transform="translate(443.4966,103.9297)"><path d="M 0,0 H -63.275 V -35.167 H 0 c 2.831,0 5.125,2.295 5.125,5.125 V -5.125 C 5.125,-2.294 2.831,0 0,0 Z" style="stroke-linecap: round; stroke-linejoin: round; stroke-miterlimit: 10; stroke-dasharray: none; stroke-opacity: 1;" id="path2357" fill="none" stroke="#C49850" stroke-width="15px" stroke-linecap="round" stroke-linejoin="round" stroke-miterlimit="10" stroke-dasharray="none" stroke-opacity="" data-original="#000000"></path></g><g id="g2359" transform="translate(68.5034,103.9297)"><path d="M 0,0 H 63.275 V -35.167 H 0 c -2.831,0 -5.125,2.295 -5.125,5.125 V -5.125 C -5.125,-2.294 -2.831,0 0,0 Z" style="stroke-linecap: round; stroke-linejoin: round; stroke-miterlimit: 10; stroke-dasharray: none; stroke-opacity: 1;" id="path2361" fill="none" stroke="#C49850" stroke-width="15px" stroke-linecap="round" stroke-linejoin="round" stroke-miterlimit="10" stroke-dasharray="none" stroke-opacity="" data-original="#000000"></path></g><g id="g2363" transform="translate(131.7783,68.7632)"><path d="m 0,0 h -60.208 v -48.252 c 0,-7.185 5.825,-13.009 13.009,-13.009 H 0 Z" style="stroke-linecap: round; stroke-linejoin: round; stroke-miterlimit: 10; stroke-dasharray: none; stroke-opacity: 1;" id="path2365" fill="none" stroke="#C49850" stroke-width="15px" stroke-linecap="round" stroke-linejoin="round" stroke-miterlimit="10" stroke-dasharray="none" stroke-opacity="" data-original="#000000"></path></g><g id="g2367" transform="translate(380.2216,7.502)"><path d="m 0,0 h 47.199 c 7.185,0 13.009,5.824 13.009,13.009 V 61.261 H 0 Z" style="stroke-linecap: round; stroke-linejoin: round; stroke-miterlimit: 10; stroke-dasharray: none; stroke-opacity: 1;" id="path2369" fill="none" stroke="#C49850" stroke-width="15px" stroke-linecap="round" stroke-linejoin="round" stroke-miterlimit="10" stroke-dasharray="none" stroke-opacity="" data-original="#000000"></path></g><g id="g2371" transform="translate(345.7168,7.502)"><path d="m 0,0 h 34.505 v 96.428 h 60.208 v 33.25 c 0,27.62 -17.683,51.763 -39.038,60.552 -4.857,1.881 -96.116,37.224 -100.865,39.063 -2.766,1.069 -4.604,3.731 -4.613,6.713 l -0.019,23.725 c -11.184,-7.318 -24.531,-11.59 -38.865,-11.59 -15.805,0 -29.675,4.382 -40.987,11.697 l 0.001,-23.788 c 0,-2.974 -1.43,-4.726 -3.076,-5.843 L -235.107,190.23 c -16.691,-6.869 -39.039,-28.481 -39.039,-60.552 v -33.25 h 60.208 V 0 H -35" style="stroke-linecap: round; stroke-linejoin: round; stroke-miterlimit: 10; stroke-dasharray: none; stroke-opacity: 1;" id="path2373" fill="none" stroke="#C49850" stroke-width="15px" stroke-linecap="round" stroke-linejoin="round" stroke-miterlimit="10" stroke-dasharray="none" stroke-opacity="" data-original="#000000"></path></g><g id="g2375" transform="translate(276.8613,462.3228)"><path d="m 0,0 v 33.942 c 0,4.547 -3.686,8.233 -8.233,8.233 H -33.49 c -4.547,0 -8.233,-3.686 -8.233,-8.233 V -57.43 H 0 V -35" style="stroke-linecap: round; stroke-linejoin: round; stroke-miterlimit: 10; stroke-dasharray: none; stroke-opacity: 1;" id="path2377" fill="none" stroke="#C49850" stroke-width="15px" stroke-linecap="round" stroke-linejoin="round" stroke-miterlimit="10" stroke-dasharray="none" stroke-opacity="" data-original="#000000"></path></g></g></g></g></g></svg>