<svg xmlns="http://www.w3.org/2000/svg" version="1.1" xmlns:xlink="http://www.w3.org/1999/xlink" xmlns:svgjs="http://svgjs.com/svgjs" width="512" height="512" x="0" y="0" viewBox="0 0 512 512" style="enable-background:new 0 0 512 512" xml:space="preserve"><g>
<g>
	<g>
		<path d="M506.326,187.024L368.294,75.893c-5.572-4.487-13.514-4.485-19.086,0l-17.564,14.139l91.024,73.285
			c10.819,8.709,17.024,21.67,17.024,35.56v225.376c0,5.334-0.928,10.455-2.617,15.218h59.709c8.404,0,15.218-6.814,15.218-15.218
			V198.878C512,194.271,509.913,189.912,506.326,187.024z" fill="#000000" data-original="#000000"></path>
	</g>
</g>
<g>
	<g>
		<path d="M403.581,187.024L265.55,75.893c-5.572-4.487-13.516-4.485-19.086,0L228.9,90.033l91.024,73.284
			c10.819,8.711,17.024,21.672,17.024,35.561v225.376c0,5.334-0.928,10.455-2.617,15.218h59.709c8.403,0,15.217-6.814,15.217-15.218
			V198.878C409.255,194.271,407.168,189.913,403.581,187.024z" fill="#000000" data-original="#000000"></path>
	</g>
</g>
<g>
	<g>
		<path d="M300.837,187.024L162.805,75.893c-5.572-4.487-13.514-4.485-19.086,0L5.675,187.024C2.087,189.912,0,194.271,0,198.878
			v225.376c0,8.404,6.814,15.218,15.218,15.218h94.776c8.404,0,15.218-6.814,15.218-15.218v-67.907
			c0-15.463,12.58-28.043,28.043-28.043c15.463,0,28.044,12.58,28.044,28.043v67.907c0,8.404,6.814,15.218,15.218,15.218h8.115
			h16.075h70.586c8.404,0,15.218-6.814,15.218-15.218V198.878C306.512,194.271,304.425,189.913,300.837,187.024z" fill="#000000" data-original="#000000"></path>
	</g>
</g>
<g>
</g>
<g>
</g>
<g>
</g>
<g>
</g>
<g>
</g>
<g>
</g>
<g>
</g>
<g>
</g>
<g>
</g>
<g>
</g>
<g>
</g>
<g>
</g>
<g>
</g>
<g>
</g>
<g>
</g>
</g></svg>