<svg xmlns="http://www.w3.org/2000/svg" version="1.1" xmlns:xlink="http://www.w3.org/1999/xlink" xmlns:svgjs="http://svgjs.com/svgjs" width="512" height="512" x="0" y="0" viewBox="0 0 682.66669 682.66669" style="enable-background:new 0 0 512 512" xml:space="preserve"><g><defs id="defs2725"><clipPath clipPathUnits="userSpaceOnUse" id="clipPath2735"><path d="M 0,512 H 512 V 0 H 0 Z" id="path2733" fill="#000000" data-original="#000000"></path></clipPath></defs><g id="g2727" transform="matrix(1.3333333,0,0,-1.3333333,0,682.66667)"><g id="g2729"><g id="g2731" clip-path="url(#clipPath2735)"><g id="g2737" transform="translate(310.4399,487.1201)"><path d="m 0,0 h 82.06 c 10.22,0 18.5,-8.28 18.5,-18.5 0,-5.11 -2.07,-9.74 -5.42,-13.08 C 91.8,-34.93 87.17,-37 82.06,-37 H 0" style="stroke-linecap: round; stroke-linejoin: round; stroke-miterlimit: 10; stroke-dasharray: none; stroke-opacity: 1;" id="path2739" fill="none" stroke="#000000" stroke-width="15px" stroke-linecap="round" stroke-linejoin="round" stroke-miterlimit="10" stroke-dasharray="none" stroke-opacity="" data-original="#000000"></path></g><g id="g2741" transform="translate(231.5601,450.1201)"><path d="m 0,0 h -82.06 c -10.22,0 -18.5,8.28 -18.5,18.5 0,5.11 2.07,9.74 5.42,13.08 3.34,3.35 7.97,5.42 13.08,5.42 H 0" style="stroke-linecap: round; stroke-linejoin: round; stroke-miterlimit: 10; stroke-dasharray: none; stroke-opacity: 1;" id="path2743" fill="none" stroke="#000000" stroke-width="15px" stroke-linecap="round" stroke-linejoin="round" stroke-miterlimit="10" stroke-dasharray="none" stroke-opacity="" data-original="#000000"></path></g><g id="g2745" transform="translate(288.9409,389.3589)"><path d="M 0,0 V 43.378" style="stroke-linecap: round; stroke-linejoin: round; stroke-miterlimit: 10; stroke-dasharray: none; stroke-opacity: 1;" id="path2747" fill="none" stroke="#000000" stroke-width="15px" stroke-linecap="round" stroke-linejoin="round" stroke-miterlimit="10" stroke-dasharray="none" stroke-opacity="" data-original="#000000"></path></g><g id="g2749" transform="translate(253.0591,432.7373)"><path d="M 0,0 V -43.378" style="stroke-linecap: round; stroke-linejoin: round; stroke-miterlimit: 10; stroke-dasharray: none; stroke-opacity: 1;" id="path2751" fill="none" stroke="#000000" stroke-width="15px" stroke-linecap="round" stroke-linejoin="round" stroke-miterlimit="10" stroke-dasharray="none" stroke-opacity="" data-original="#000000"></path></g><g id="g2753" transform="translate(92.5,363.6201)"><path d="M 0,0 H -85" style="stroke-linecap: round; stroke-linejoin: round; stroke-miterlimit: 10; stroke-dasharray: none; stroke-opacity: 1;" id="path2755" fill="none" stroke="#000000" stroke-width="15px" stroke-linecap="round" stroke-linejoin="round" stroke-miterlimit="10" stroke-dasharray="none" stroke-opacity="" data-original="#000000"></path></g><g id="g2757" transform="translate(191,363.6201)"><path d="M 0,0 H -68.5" style="stroke-linecap: round; stroke-linejoin: round; stroke-miterlimit: 10; stroke-dasharray: none; stroke-opacity: 1;" id="path2759" fill="none" stroke="#000000" stroke-width="15px" stroke-linecap="round" stroke-linejoin="round" stroke-miterlimit="10" stroke-dasharray="none" stroke-opacity="" data-original="#000000"></path></g><g id="g2761" transform="translate(92.5,276.6201)"><path d="M 0,0 H -85" style="stroke-linecap: round; stroke-linejoin: round; stroke-miterlimit: 10; stroke-dasharray: none; stroke-opacity: 1;" id="path2763" fill="none" stroke="#000000" stroke-width="15px" stroke-linecap="round" stroke-linejoin="round" stroke-miterlimit="10" stroke-dasharray="none" stroke-opacity="" data-original="#000000"></path></g><g id="g2765" transform="translate(191,276.6201)"><path d="M 0,0 H -68.5" style="stroke-linecap: round; stroke-linejoin: round; stroke-miterlimit: 10; stroke-dasharray: none; stroke-opacity: 1;" id="path2767" fill="none" stroke="#000000" stroke-width="15px" stroke-linecap="round" stroke-linejoin="round" stroke-miterlimit="10" stroke-dasharray="none" stroke-opacity="" data-original="#000000"></path></g><g id="g2769" transform="translate(489.5,221.4141)"><path d="M 0,0 V -29.794" style="stroke-linecap: round; stroke-linejoin: round; stroke-miterlimit: 10; stroke-dasharray: none; stroke-opacity: 1;" id="path2771" fill="none" stroke="#000000" stroke-width="15px" stroke-linecap="round" stroke-linejoin="round" stroke-miterlimit="10" stroke-dasharray="none" stroke-opacity="" data-original="#000000"></path></g><g id="g2773" transform="translate(351,363.6201)"><path d="m 0,0 h 71.2 c 37.17,0 67.3,-30.13 67.3,-67.3 v -39.907" style="stroke-linecap: round; stroke-linejoin: round; stroke-miterlimit: 10; stroke-dasharray: none; stroke-opacity: 1;" id="path2775" fill="none" stroke="#000000" stroke-width="15px" stroke-linecap="round" stroke-linejoin="round" stroke-miterlimit="10" stroke-dasharray="none" stroke-opacity="" data-original="#000000"></path></g><g id="g2777" transform="translate(351,276.6201)"><path d="M 0,0 H 40.77 C 46.69,0 51.5,-4.81 51.5,-10.73 V -85" style="stroke-linecap: round; stroke-linejoin: round; stroke-miterlimit: 10; stroke-dasharray: none; stroke-opacity: 1;" id="path2779" fill="none" stroke="#000000" stroke-width="15px" stroke-linecap="round" stroke-linejoin="round" stroke-miterlimit="10" stroke-dasharray="none" stroke-opacity="" data-original="#000000"></path></g><g id="g2781" transform="translate(395.1201,161.6182)"><path d="m 0,0 h 101.76 c 4.208,0 7.62,3.412 7.62,7.62 v 14.761 c 0,4.208 -3.412,7.619 -7.62,7.619 H 0 c -4.208,0 -7.62,-3.411 -7.62,-7.619 V 7.62 C -7.62,3.412 -4.208,0 0,0 Z" style="stroke-linecap: round; stroke-linejoin: round; stroke-miterlimit: 10; stroke-dasharray: none; stroke-opacity: 1;" id="path2783" fill="none" stroke="#000000" stroke-width="15px" stroke-linecap="round" stroke-linejoin="round" stroke-miterlimit="10" stroke-dasharray="none" stroke-opacity="" data-original="#000000"></path></g><g id="g2785" transform="translate(92.5,363.6187)"><path d="m 0,0 v -87 c 0,-8.284 6.716,-15 15,-15 8.284,0 15,6.716 15,15 V 0 C 30,8.284 23.284,15 15,15 6.716,15 0,8.284 0,0 Z" style="stroke-linecap: round; stroke-linejoin: round; stroke-miterlimit: 10; stroke-dasharray: none; stroke-opacity: 1;" id="path2787" fill="none" stroke="#000000" stroke-width="15px" stroke-linecap="round" stroke-linejoin="round" stroke-miterlimit="10" stroke-dasharray="none" stroke-opacity="" data-original="#000000"></path></g><g id="g2789" transform="translate(246.562,432.7373)"><path d="m 0,0 h 48.876 c 8.284,0 15,6.716 15,15 v 41.763 c 0,8.284 -6.716,15 -15,15 H 0 c -8.284,0 -15,-6.716 -15,-15 V 15 C -15,6.716 -8.284,0 0,0 Z" style="stroke-linecap: round; stroke-linejoin: round; stroke-miterlimit: 10; stroke-dasharray: none; stroke-opacity: 1;" id="path2791" fill="none" stroke="#000000" stroke-width="15px" stroke-linecap="round" stroke-linejoin="round" stroke-miterlimit="10" stroke-dasharray="none" stroke-opacity="" data-original="#000000"></path></g><g id="g2793" transform="translate(399.0278,54.4531)"><path d="m 0,0 c 0,-25.932 21.03,-46.953 46.972,-46.953 25.942,0 46.972,21.021 46.972,46.953 0,22.617 -35.73,59.357 -44.865,68.381 -1.17,1.156 -3.043,1.156 -4.213,0 C 35.73,59.357 0,22.617 0,0 Z" style="stroke-linecap: round; stroke-linejoin: round; stroke-miterlimit: 10; stroke-dasharray: none; stroke-opacity: 1;" id="path2795" fill="none" stroke="#000000" stroke-width="15px" stroke-linecap="round" stroke-linejoin="round" stroke-miterlimit="10" stroke-dasharray="none" stroke-opacity="" data-original="#000000"></path></g><g id="g2797" transform="translate(233.3706,250.8779)"><path d="m 0,0 h -12.681 c -16.568,0 -30,13.432 -30,30 v 78.481 c 0,16.568 13.432,30 30,30 h 100.62 c 16.569,0 30,-13.432 30,-30 V 30 c 0,-16.568 -13.431,-30 -30,-30 H 35" style="stroke-linecap: round; stroke-linejoin: round; stroke-miterlimit: 10; stroke-dasharray: none; stroke-opacity: 1;" id="path2799" fill="none" stroke="#000000" stroke-width="15px" stroke-linecap="round" stroke-linejoin="round" stroke-miterlimit="10" stroke-dasharray="none" stroke-opacity="" data-original="#000000"></path></g></g></g></g></g></svg>