<svg xmlns="http://www.w3.org/2000/svg" version="1.1" xmlns:xlink="http://www.w3.org/1999/xlink" xmlns:svgjs="http://svgjs.com/svgjs" width="512" height="512" x="0" y="0" viewBox="0 0 682.66669 682.66669" style="enable-background:new 0 0 512 512" xml:space="preserve"><g><defs id="defs4162"><clipPath clipPathUnits="userSpaceOnUse" id="clipPath4172"><path d="M 0,512 H 512 V 0 H 0 Z" id="path4170" fill="#000000" data-original="#000000"></path></clipPath></defs><g id="g4164" transform="matrix(1.3333333,0,0,-1.3333333,0,682.66667)"><g id="g4166"><g id="g4168" clip-path="url(#clipPath4172)"><g id="g4174" transform="translate(95.8677,7.5)"><path d="m 0,0 h 378.632 c 16.569,0 30,13.434 30,30.004 v 26.447" style="stroke-linecap: round; stroke-linejoin: round; stroke-miterlimit: 10; stroke-dasharray: none; stroke-opacity: 1;" id="path4176" fill="none" stroke="#000000" stroke-width="15px" stroke-linecap="round" stroke-linejoin="round" stroke-miterlimit="10" stroke-dasharray="none" stroke-opacity="" data-original="#000000"></path></g><g id="g4178" transform="translate(504.5,96.1836)"><path d="m 0,0 v 169.092 c -20.712,0 -20.712,-17.344 -41.423,-17.344 -20.712,0 -20.712,17.344 -41.423,17.344 -20.709,0 -20.709,-17.344 -41.417,-17.344 -20.709,0 -20.709,17.344 -41.419,17.344 -20.708,0 -20.708,-17.344 -41.416,-17.344 -20.708,0 -20.708,17.344 -41.416,17.344 -20.705,0 -20.705,-17.344 -41.411,-17.344 -20.707,0 -20.707,17.344 -41.415,17.344 -20.709,0 -20.709,-17.344 -41.417,-17.344 -20.708,0 -20.708,17.344 -41.416,17.344 -20.707,0 -20.707,-17.344 -41.414,-17.344 -20.706,0 -20.706,17.344 -41.413,17.344 V -58.68 c 0,-16.57 13.432,-30.004 30,-30.004 h 26.182" style="stroke-linecap: round; stroke-linejoin: round; stroke-miterlimit: 10; stroke-dasharray: none; stroke-opacity: 1;" id="path4180" fill="none" stroke="#000000" stroke-width="15px" stroke-linecap="round" stroke-linejoin="round" stroke-miterlimit="10" stroke-dasharray="none" stroke-opacity="" data-original="#000000"></path></g><g id="g4182" transform="translate(197.2578,390.1768)"><path d="m 0,0 c 17.512,9.34 37.509,14.634 58.742,14.634 69.035,0 125,-55.964 125,-125 0,-69.035 -55.965,-125 -125,-125 -69.035,0 -125,55.965 -125,125 0,36.337 15.505,69.053 40.259,91.891" style="stroke-linecap: round; stroke-linejoin: round; stroke-miterlimit: 10; stroke-dasharray: none; stroke-opacity: 1;" id="path4184" fill="none" stroke="#000000" stroke-width="15px" stroke-linecap="round" stroke-linejoin="round" stroke-miterlimit="10" stroke-dasharray="none" stroke-opacity="" data-original="#000000"></path></g><g id="g4186" transform="translate(230,94.7881)"><path d="M 0,0 26,20 52,0" style="stroke-linecap: round; stroke-linejoin: round; stroke-miterlimit: 10; stroke-dasharray: none; stroke-opacity: 1;" id="path4188" fill="none" stroke="#000000" stroke-width="15px" stroke-linecap="round" stroke-linejoin="round" stroke-miterlimit="10" stroke-dasharray="none" stroke-opacity="" data-original="#000000"></path></g><g id="g4190" transform="translate(256,109.7881)"><path d="M 0,0 V -52" style="stroke-linecap: round; stroke-linejoin: round; stroke-miterlimit: 10; stroke-dasharray: none; stroke-opacity: 1;" id="path4192" fill="none" stroke="#000000" stroke-width="15px" stroke-linecap="round" stroke-linejoin="round" stroke-miterlimit="10" stroke-dasharray="none" stroke-opacity="" data-original="#000000"></path></g><g id="g4194" transform="translate(129,94.7881)"><path d="M 0,0 26,20 52,0" style="stroke-linecap: round; stroke-linejoin: round; stroke-miterlimit: 10; stroke-dasharray: none; stroke-opacity: 1;" id="path4196" fill="none" stroke="#000000" stroke-width="15px" stroke-linecap="round" stroke-linejoin="round" stroke-miterlimit="10" stroke-dasharray="none" stroke-opacity="" data-original="#000000"></path></g><g id="g4198" transform="translate(155,109.7881)"><path d="M 0,0 V -52" style="stroke-linecap: round; stroke-linejoin: round; stroke-miterlimit: 10; stroke-dasharray: none; stroke-opacity: 1;" id="path4200" fill="none" stroke="#000000" stroke-width="15px" stroke-linecap="round" stroke-linejoin="round" stroke-miterlimit="10" stroke-dasharray="none" stroke-opacity="" data-original="#000000"></path></g><g id="g4202" transform="translate(331,94.7881)"><path d="M 0,0 26,20 52,0" style="stroke-linecap: round; stroke-linejoin: round; stroke-miterlimit: 10; stroke-dasharray: none; stroke-opacity: 1;" id="path4204" fill="none" stroke="#000000" stroke-width="15px" stroke-linecap="round" stroke-linejoin="round" stroke-miterlimit="10" stroke-dasharray="none" stroke-opacity="" data-original="#000000"></path></g><g id="g4206" transform="translate(357,109.7881)"><path d="M 0,0 V -52" style="stroke-linecap: round; stroke-linejoin: round; stroke-miterlimit: 10; stroke-dasharray: none; stroke-opacity: 1;" id="path4208" fill="none" stroke="#000000" stroke-width="15px" stroke-linecap="round" stroke-linejoin="round" stroke-miterlimit="10" stroke-dasharray="none" stroke-opacity="" data-original="#000000"></path></g><g id="g4210" transform="translate(282,467.5)"><path d="M 0,0 -26,-20 -52,0" style="stroke-linecap: round; stroke-linejoin: round; stroke-miterlimit: 10; stroke-dasharray: none; stroke-opacity: 1;" id="path4212" fill="none" stroke="#000000" stroke-width="15px" stroke-linecap="round" stroke-linejoin="round" stroke-miterlimit="10" stroke-dasharray="none" stroke-opacity="" data-original="#000000"></path></g><g id="g4214" transform="translate(256.0005,452.5)"><path d="M 0,0 V 52" style="stroke-linecap: round; stroke-linejoin: round; stroke-miterlimit: 10; stroke-dasharray: none; stroke-opacity: 1;" id="path4216" fill="none" stroke="#000000" stroke-width="15px" stroke-linecap="round" stroke-linejoin="round" stroke-miterlimit="10" stroke-dasharray="none" stroke-opacity="" data-original="#000000"></path></g><g id="g4218" transform="translate(383,467.5)"><path d="M 0,0 -26,-20 -52,0" style="stroke-linecap: round; stroke-linejoin: round; stroke-miterlimit: 10; stroke-dasharray: none; stroke-opacity: 1;" id="path4220" fill="none" stroke="#000000" stroke-width="15px" stroke-linecap="round" stroke-linejoin="round" stroke-miterlimit="10" stroke-dasharray="none" stroke-opacity="" data-original="#000000"></path></g><g id="g4222" transform="translate(357,452.5)"><path d="M 0,0 V 52" style="stroke-linecap: round; stroke-linejoin: round; stroke-miterlimit: 10; stroke-dasharray: none; stroke-opacity: 1;" id="path4224" fill="none" stroke="#000000" stroke-width="15px" stroke-linecap="round" stroke-linejoin="round" stroke-miterlimit="10" stroke-dasharray="none" stroke-opacity="" data-original="#000000"></path></g><g id="g4226" transform="translate(181,467.5)"><path d="M 0,0 -26,-20 -52,0" style="stroke-linecap: round; stroke-linejoin: round; stroke-miterlimit: 10; stroke-dasharray: none; stroke-opacity: 1;" id="path4228" fill="none" stroke="#000000" stroke-width="15px" stroke-linecap="round" stroke-linejoin="round" stroke-miterlimit="10" stroke-dasharray="none" stroke-opacity="" data-original="#000000"></path></g><g id="g4230" transform="translate(155,452.5)"><path d="M 0,0 V 52" style="stroke-linecap: round; stroke-linejoin: round; stroke-miterlimit: 10; stroke-dasharray: none; stroke-opacity: 1;" id="path4232" fill="none" stroke="#000000" stroke-width="15px" stroke-linecap="round" stroke-linejoin="round" stroke-miterlimit="10" stroke-dasharray="none" stroke-opacity="" data-original="#000000"></path></g></g></g></g></g></svg>