<svg xmlns="http://www.w3.org/2000/svg" version="1.1" xmlns:xlink="http://www.w3.org/1999/xlink" xmlns:svgjs="http://svgjs.com/svgjs" width="512" height="512" x="0" y="0" viewBox="0 0 110 110" style="enable-background:new 0 0 512 512" xml:space="preserve"><g><path d="m10.23 101.27h91.77a1 1 0 0 0 0-2h-1.24v-71.85a2.69 2.69 0 0 0 -2.69-2.69h-33.88a2.61 2.61 0 0 0 -.69.1v-13.41a2.7 2.7 0 0 0 -2.69-2.69h-48.88a2.7 2.7 0 0 0 -2.69 2.69v87.85h-1.24a1 1 0 0 0 0 2zm34.75-2h-17.22v-12.15a8.61 8.61 0 0 1 17.22 0zm19.21-72.54h33.88a.69.69 0 0 1 .69.69v71.85h-35.26v-71.85a.69.69 0 0 1 .69-.69zm-52.95-15.31a.69.69 0 0 1 .69-.69h48.88a.69.69 0 0 1 .69.69v87.85h-14.5v-12.15a10.61 10.61 0 0 0 -21.22 0v12.15h-14.54zm5.43 14.78h39.4a1 1 0 0 0 1-1v-8.55a1 1 0 0 0 -1-1h-39.4a1 1 0 0 0 -1 1v8.55a1 1 0 0 0 1 1zm1-8.55h37.4v6.55h-37.4zm-1 23.71h39.4a1 1 0 0 0 1-1v-8.55a1 1 0 0 0 -1-1h-39.4a1 1 0 0 0 -1 1v8.55a1 1 0 0 0 1 1zm1-8.55h37.4v6.55h-37.4zm-1 23.72h39.4a1 1 0 0 0 1-1v-8.53a1 1 0 0 0 -1-1h-39.4a1 1 0 0 0 -1 1v8.55a1 1 0 0 0 1 .98zm1-8.55h37.4v6.55h-37.4zm38.4 23.72a1 1 0 0 0 1-1v-8.55a1 1 0 0 0 -1-1h-39.4a1 1 0 0 0 -1 1v8.55a1 1 0 0 0 1 1zm-38.4-8.55h37.4v6.55h-37.4zm51.26-21.79h24.4a1 1 0 0 0 1-1v-8.55a1 1 0 0 0 -1-1h-24.4a1 1 0 0 0 -1 1v8.55a1 1 0 0 0 1 1zm1-8.55h22.4v6.55h-22.4zm-1 23.72h24.4a1 1 0 0 0 1-1v-8.53a1 1 0 0 0 -1-1h-24.4a1 1 0 0 0 -1 1v8.55a1 1 0 0 0 1 .98zm1-8.55h22.4v6.55h-22.4zm-1 23.72h24.4a1 1 0 0 0 1-1v-8.55a1 1 0 0 0 -1-1h-24.4a1 1 0 0 0 -1 1v8.55a1 1 0 0 0 1 1zm1-8.55h22.4v6.55h-22.4zm-1 23.91h24.4a1 1 0 0 0 1-1v-8.55a1 1 0 0 0 -1-1h-24.4a1 1 0 0 0 -1 1v8.55a1 1 0 0 0 1 1zm1-8.55h22.4v6.55h-22.4z" fill="#000000" data-original="#000000"></path></g></svg>