<svg xmlns="http://www.w3.org/2000/svg" version="1.1" xmlns:xlink="http://www.w3.org/1999/xlink" xmlns:svgjs="http://svgjs.com/svgjs" width="512" height="512" x="0" y="0" viewBox="0 0 512 512" style="enable-background:new 0 0 512 512" xml:space="preserve"><g>
<g>
	<g>
		<path d="M503.467,494.933H8.533c-4.719,0-8.533,3.823-8.533,8.533S3.814,512,8.533,512h494.933c4.719,0,8.533-3.823,8.533-8.533
			S508.186,494.933,503.467,494.933z" fill="#000000" data-original="#000000"></path>
	</g>
</g>
<g>
	<g>
		<path d="M256,0H34.133C29.414,0,25.6,3.823,25.6,8.533v494.933c0,4.71,3.814,8.533,8.533,8.533H256
			c4.719,0,8.533-3.823,8.533-8.533V8.533C264.533,3.823,260.719,0,256,0z M247.467,494.933h-204.8V17.067h204.8V494.933z" fill="#000000" data-original="#000000"></path>
	</g>
</g>
<g>
	<g>
		<path d="M221.867,34.133h-153.6c-4.719,0-8.533,3.823-8.533,8.533v460.8c0,4.71,3.814,8.533,8.533,8.533h153.6
			c4.719,0,8.533-3.823,8.533-8.533v-460.8C230.4,37.956,226.586,34.133,221.867,34.133z M213.333,494.933H76.8V51.2h136.533
			V494.933z" fill="#000000" data-original="#000000"></path>
	</g>
</g>
<g>
	<g>
		<path d="M477.867,0H256c-4.719,0-8.533,3.823-8.533,8.533v494.933c0,4.71,3.814,8.533,8.533,8.533h221.867
			c4.719,0,8.533-3.823,8.533-8.533V8.533C486.4,3.823,482.586,0,477.867,0z M469.333,494.933h-204.8V17.067h204.8V494.933z" fill="#000000" data-original="#000000"></path>
	</g>
</g>
<g>
	<g>
		<path d="M443.733,34.133h-153.6c-4.719,0-8.533,3.823-8.533,8.533v460.8c0,4.71,3.814,8.533,8.533,8.533h153.6
			c4.719,0,8.533-3.823,8.533-8.533v-460.8C452.267,37.956,448.452,34.133,443.733,34.133z M435.2,494.933H298.667V51.2H435.2
			V494.933z" fill="#000000" data-original="#000000"></path>
	</g>
</g>
<g>
	<g>
		<path d="M324.267,213.333c-4.719,0-8.533,3.823-8.533,8.533v102.4c0,4.71,3.814,8.533,8.533,8.533
			c4.719,0,8.533-3.823,8.533-8.533v-102.4C332.8,217.156,328.986,213.333,324.267,213.333z" fill="#000000" data-original="#000000"></path>
	</g>
</g>
<g>
	<g>
		<path d="M187.733,213.333c-4.719,0-8.533,3.823-8.533,8.533v102.4c0,4.71,3.814,8.533,8.533,8.533s8.533-3.823,8.533-8.533v-102.4
			C196.267,217.156,192.452,213.333,187.733,213.333z" fill="#000000" data-original="#000000"></path>
	</g>
</g>
<g>
</g>
<g>
</g>
<g>
</g>
<g>
</g>
<g>
</g>
<g>
</g>
<g>
</g>
<g>
</g>
<g>
</g>
<g>
</g>
<g>
</g>
<g>
</g>
<g>
</g>
<g>
</g>
<g>
</g>
</g></svg>