<svg xmlns="http://www.w3.org/2000/svg" version="1.1" xmlns:xlink="http://www.w3.org/1999/xlink" xmlns:svgjs="http://svgjs.com/svgjs" width="512" height="512" x="0" y="0" viewBox="0 0 512 512" style="enable-background:new 0 0 512 512" xml:space="preserve"><g><path d="m128 488h256a40.046 40.046 0 0 0 40-40v-240h8a24 24 0 0 0 14.4-43.2l-176-132a24.128 24.128 0 0 0 -28.8 0l-176 132a24 24 0 0 0 14.4 43.2h8v240a40.046 40.046 0 0 0 40 40zm280-40a24.027 24.027 0 0 1 -24 24h-256a24.027 24.027 0 0 1 -24-24v-240h144v56h-8a8 8 0 0 0 -8 8v37.414a56 56 0 1 0 48 0v-37.414a8 8 0 0 0 -8-8h-8v-56h144zm-152-128a40 40 0 1 1 -40 40 40.046 40.046 0 0 1 40-40zm0-16a56.186 56.186 0 0 0 -8 .581v-24.581h16v24.581a56.186 56.186 0 0 0 -8-.581zm-176-112a8 8 0 0 1 -4.8-14.4l176-132a8.042 8.042 0 0 1 9.6 0l176 132a8 8 0 0 1 -4.8 14.4z" fill="#000000" data-original="#000000"></path><path d="m168 344h-16a8 8 0 0 0 0 16h16a8 8 0 0 0 0-16z" fill="#000000" data-original="#000000"></path><path d="m344 360h16a8 8 0 0 0 0-16h-16a8 8 0 0 0 0 16z" fill="#000000" data-original="#000000"></path><path d="m188.118 295.432a8 8 0 1 0 11.313-11.314l-11.313-11.318a8 8 0 0 0 -11.318 11.318z" fill="#000000" data-original="#000000"></path><path d="m323.882 408.568a8 8 0 1 0 -11.313 11.314l11.313 11.318a8 8 0 0 0 11.318-11.318z" fill="#000000" data-original="#000000"></path><path d="m188.118 408.568-11.318 11.314a8 8 0 0 0 11.318 11.318l11.313-11.313a8 8 0 1 0 -11.313-11.314z" fill="#000000" data-original="#000000"></path><path d="m318.226 297.774a7.977 7.977 0 0 0 5.657-2.343l11.317-11.313a8 8 0 0 0 -11.318-11.318l-11.313 11.313a8 8 0 0 0 5.657 13.657z" fill="#000000" data-original="#000000"></path></g></svg>