<svg xmlns="http://www.w3.org/2000/svg" version="1.1" xmlns:xlink="http://www.w3.org/1999/xlink" xmlns:svgjs="http://svgjs.com/svgjs" width="512" height="512" x="0" y="0" viewBox="0 0 256 256" style="enable-background:new 0 0 512 512" xml:space="preserve"><g><g><path d="m19.0646 216.6507h2.3699l9.5262 16.5h-11.8961v5.5h215.6682v-5.5h-2.3703l-9.5261-16.5h11.8964v-5.5h-215.6682zm197.421 0 9.5261 16.5h-15.3216l-9.5261-16.5zm-21.6724 0 9.526 16.5h-15.3211l-9.5265-16.5zm-21.6724 0 9.5265 16.5h-15.3217l-9.5265-16.5zm-21.6725 0 9.5265 16.5h-15.3215l-9.5262-16.5zm-21.672 0 9.5262 16.5h-15.3217l-9.526-16.5zm-21.6724 0 9.5261 16.5h-15.3213l-9.5265-16.5zm-21.6725 0 9.5265 16.5h-15.3215l-9.5261-16.5zm-21.6719 0 9.5261 16.5h-15.3217l-9.5261-16.5zm-21.6725 0 9.5261 16.5h-15.3216l-9.5262-16.5z" fill="#000000" data-original="#000000"></path><path d="m19.065 199.601h215.668v5.5h-215.668z" fill="#000000" data-original="#000000"></path><path d="m127.8346 170.3219c11.8797.2821 23.8332-5.4434 31.8039-15.134 8.3977-10.2091 11.5667-23.7456 8.482-36.2235-2.0979-10.16-23.5587-49.076-32.703-65.3624-1.1221-1.7285-2.894-3.8607-6.2009-4.1083-1.519-.1147-4.5086.2261-7.1233 3.7617-2.8376 4.3429-11.8908 19.1216-16.5546 26.9486-11.5393 19.3663-18.0463 31.7303-19.3419 36.7514-3.6921 12.3103-1.1913 25.9864 6.6951 36.5943 7.8955 10.6204 19.7972 17.0544 34.9427 16.7722zm-36.3547-51.8359c.0118-.0403.0231-.0806.0333-.1214 2.4777-9.8205 30.196-54.3382 35.157-62.1034.1042-.1631.9787-1.2843 2.1136-1.2843s1.7327 1.1306 1.838 1.3178c14.5288 25.8758 30.5959 56.2292 32.1197 63.8172.0086.0411 4.9709 16.7975-7.3503 31.5823-7.2972 8.8709-19.2198 14.5332-31.5141 13.024-10.4783-.5257-20.0852-5.7254-26.571-14.4498-6.8655-9.2343-9.0435-21.1157-5.8262-31.7824z" fill="#000000" data-original="#000000"></path><path d="m146.9305 146.7042c4.2947-4.8013 7.2934-11.0933 8.2248-18.166l-5.4527-.7181c-.7519 5.7084-3.805 12.5629-7.2277 15.6788-4.3887 4.83-12.0104 8.0883-17.6287 7.2934l-.1482 5.4978c-.0001 0 12.8627 1.114 22.2325-9.5859z" fill="#000000" data-original="#000000"></path><path d="m206.4068 108.2167c9.176-.0005 17.7778-4.1081 23.7918-11.4192 6.3304-7.6965 8.7205-17.904 6.398-27.3171-1.5291-7.3447-15.8007-33.4506-24.1893-48.3882 0 0-1.3435-2.9134-5.1358-3.3757-1.2756-.0953-3.5719.2626-5.3636 2.3062-1.541 2.1306-10.5231 16.9203-12.7627 20.6797-12.7456 21.3904-13.9643 25.8119-14.3328 27.2669-2.779 9.2866-.8927 19.5972 5.052 27.5932 5.8589 7.6347 13.9873 12.6889 26.5424 12.6542zm-26.3103-38.7205c.0118-.0403.0231-.0806.0333-.1214 1.7908-7.0957 22.4652-40.3091 25.8953-45.6765.332-.639 1.3219-.639 1.5864.0869 13.634 24.2773 22.6789 42.2267 23.606 46.8432.0086.0411 3.589 11.9351-5.2664 22.6751-5.2314 6.3599-12.8204 10.05-21.9919 9.3606-7.7549-.1914-14.8989-3.9508-19.6808-10.3832-4.9242-6.6231-6.4872-15.1408-4.1819-22.7847z" fill="#000000" data-original="#000000"></path><path d="m219.4044 92.0107c3.8542-3.9385 6.8441-9.1182 7.6478-15.2198l-5.4527-.7181c-.9656 9.7212-9.6672 17.1202-17.5834 16.3029l-.1482 5.4978c5.4591.4258 11.7117-2.0231 15.5365-5.8628z" fill="#000000" data-original="#000000"></path><path d="m72.9775 96.7977c6.3309-7.6965 8.7205-17.9043 6.3986-27.3176-1.5292-7.3444-15.8012-33.4504-24.1898-48.3879 0 0-2.0361-3.3997-5.5446-3.3997-3.5084 0-5.1856 2.6494-5.6413 3.3483-2.6123 4.0071-10.0646 16.2845-12.0764 19.6615-12.7455 21.3904-13.9642 25.8119-14.3327 27.2669-2.779 9.2866-.8927 19.5972 5.0521 27.5932 3.3773 4.1438 10.0468 12.3764 25.6784 12.689 14.2768-.1042 21.7913-7.9716 24.6557-11.4537zm-50.0688-27.4229c1.7846-7.071 22.3218-40.0787 25.8589-45.6196.5615-.8175 1.1867-.6438 1.6233.03 13.6334 24.2776 22.6789 42.2267 23.606 46.8435.0086.0408 3.608 11.7785-5.2674 22.6749-5.2314 6.3602-12.8068 9.7759-20.806 9.3817-.0231-.0013-12.4718.8767-20.8662-10.4044-8.3313-11.1242-4.1588-22.8653-4.1486-22.9061z" fill="#000000" data-original="#000000"></path><path d="m63.2777 90.9081c3.4269-3.6853 5.825-8.5869 6.5534-14.1172l-5.4527-.7181c-.633 4.8042-2.8424 8.9964-5.941 11.9307-5.5303 5.2415-11.6423 4.3721-11.6423 4.3721l-.1482 5.4978c-.0001.0002 8.9696 1.1554 16.6308-6.9653z" fill="#000000" data-original="#000000"></path><path d="m60.9183 147.0583c-2.4557-3.6838-4.6132-7.5931-6.4125-11.6198l-5.022 2.244c1.925 4.3068 4.2324 8.4877 6.8583 12.4266z" fill="#000000" data-original="#000000"></path><path d="m65.6685 153.4582-4.2475 3.4944c3.003 3.6494 6.3331 7.0708 9.8973 10.1696l3.6083-4.1508c-3.3343-2.8987-6.449-6.0993-9.2581-9.5132z" fill="#000000" data-original="#000000"></path><path d="m164.3882 179.1686c4.2303-2.0901 8.3198-4.5566 12.1537-7.3315l-3.2248-4.4553c-3.5857 2.5948-7.4094 4.9014-11.3652 6.8557z" fill="#000000" data-original="#000000"></path><path d="m111.8148 186.5522.9722-5.4135c-4.3501-.7815-8.6614-1.9382-12.8133-3.4378l-1.8681 5.1729c4.4419 1.6046 9.0546 2.8421 13.7092 3.6784z" fill="#000000" data-original="#000000"></path><path d="m43.1062 115.9274c.7074 4.6742 1.817 9.3188 3.2973 13.8042l5.2229-1.7236c-1.3836-4.1929-2.4207-8.5344-3.0825-12.9041z" fill="#000000" data-original="#000000"></path><path d="m141.8586 180.9816 1.0313 5.4023c4.6455-.887 9.2453-2.1756 13.6716-3.8299l-1.925-5.1519c-4.1375 1.546-8.4365 2.7502-12.7779 3.5795z" fill="#000000" data-original="#000000"></path><path d="m120.69 182.1517-.4243 5.4834c2.1914.1697 4.4231.2559 6.6328.2559 2.5163 0 5.0574-.1117 7.5523-.3322l-.4839-5.4785c-4.3861.3869-8.8903.4108-13.2769.0714z" fill="#000000" data-original="#000000"></path><path d="m90.2504 179.5781 2.3805-4.9581c-3.9768-1.9097-7.8246-4.1731-11.4372-6.7278l-3.1754 4.4908c3.8629 2.7317 7.9782 5.1525 12.2321 7.1951z" fill="#000000" data-original="#000000"></path><path d="m197.9704 149.3262c2.175-3.3407 4.1187-6.8528 5.8002-10.4637l8.6942 2.3297c1.2911.2502 2.1339-.1893 2.656-.7117.695-.6947.9663-1.7075.7122-2.6563l-6.0597-22.6153c-.2546-.9491-.9958-1.6903-1.9449-1.9446-.948-.2538-1.9615.0169-2.656.7117l-16.5559 16.5553c-.695.6947-.9663 1.7072-.7122 2.6563.2546.9491.9958 1.6903 1.9449 1.9446l8.5227 2.2837c-1.4749 3.0687-3.1527 6.0555-5.0111 8.9089zm-2.0969-18.2735 9.82-9.8194 3.5938 13.4135z" fill="#000000" data-original="#000000"></path><path d="m179.5314 162.3901 3.6545 4.1105c3.5315-3.1397 6.8234-6.5976 9.7834-10.2779l-4.2851-3.4472c-2.7692 3.4427-5.8485 6.6774-9.1528 9.6146z" fill="#000000" data-original="#000000"></path></g></g></svg>