<svg xmlns="http://www.w3.org/2000/svg" version="1.1" xmlns:xlink="http://www.w3.org/1999/xlink" xmlns:svgjs="http://svgjs.com/svgjs" width="512" height="512" x="0" y="0" viewBox="0 0 48 48" style="enable-background:new 0 0 512 512" xml:space="preserve"><g><g id="Arrow,-arrows,-audio,-media,-multimedia,-replay,-sound-21" fill="none" fill-rule="evenodd"><path id="Shape" d="m24 3c11.5979797 0 21 9.4020203 21 21s-9.4020203 21-21 21-21-9.4020203-21-21 9.4020203-21 21-21zm0 2c-10.4934102 0-19 8.5065898-19 19s8.5065898 19 19 19 19-8.5065898 19-19-8.5065898-19-19-19zm12 16c0 7.1797017-5.8202983 13-13 13-.2011076 0-.4016497-.0045742-.6015155-.0136883l2.3086223 2.3065815-1.4142136 1.4142136-4.7071068-4.7071068 4.7071068-4.7071068 1.4142136 1.4142136-2.2760557 2.2784573c.1889025.00961.3785926.0144359.5689489.0144359 5.9787016 0 10.8433652-4.7697636 10.9962926-10.7115925l.0037074-.2884075zm-11.2928932-10.7071068 4.7071068 4.7071068-4.7071068 4.7071068-1.4142136-1.4142136 2.2761362-2.2784531c-.1889454-.0096138-.3786613-.0144401-.5690294-.0144401-5.9787016 0-10.8433652 4.7697636-10.9962926 10.7115925l-.0037074.2884075h-2c0-7.1797017 5.8202983-13 13-13 .2008601 0 .4011747.0045628.6008352.0136574l-2.307942-2.3065506z" fill="#C49850" fill-rule="nonzero" data-original="#000000"></path></g></g></svg>