<?xml version="1.0" encoding="UTF-8"?>
<svg id="Layer_1" data-name="Layer 1" xmlns="http://www.w3.org/2000/svg" viewBox="0 0 202.34 72.54">
  <defs>
    <style>
      .cls-1 {
        fill: #fff;
      }

      .cls-2 {
        fill: #c49850;
      }
    </style>
  </defs>
  <polygon class="cls-2" points="171 4.11 138.13 9.1 138.13 4.98 171 0 171 4.11"/>
  <polygon class="cls-2" points="114.18 64.95 81.32 69.93 81.32 65.81 114.18 60.83 114.18 64.95"/>
  <path class="cls-1" d="m45.89,58.07l7.03,5.69-4.93,7.23-6.84-5.55-3.83,5.55-7.08-5.69,4.93-7.22,6.89,5.55,3.83-5.55Zm149.7-4.92s-6.34-4.02-13.71-8.67l-3.43,3.83h-52.76,0s-48.6,0-48.6,0h-1.46l-2.55-2.71c-1.12,1.25-2.39,2.71-2.39,2.71h-12.09,0s-13.64,0-13.64,0l-3.22,4.27-2.14-7.66-2.01,3.39h-18.43l-2.16-4.21c-.04,1.18-.1,3.32-.17,4.21-.2,2.72-1.08,5.43-2.37,8.16s-2.91,5.29-4.86,7.68c-1.95,2.39-4.12,4.5-6.53,6.34-1,.76-2.01,1.45-3.04,2.05l-.05-7.67c3-1.12,5.37-2.76,7.1-4.93,1.74-2.17,2.61-4.72,2.61-7.65,0-1.12-.09-2.31-.26-3.59-.18-1.27-.43-2.56-.77-3.85-.33-1.29-.72-2.57-1.15-3.85-.43-1.28-7.06-14.38-7.54-15.46l7.23-9.23c.1-.1,7.69,16.04,8.13,17.66.45,1.63.84,3.31,1.17,5.05.33,1.74.5,3.17.5,4.28h21.91l-5.07-13.62,7.46-8.61,6.89,22.23h11.78l7.46-8.18,1.94,8.49c2.69-2.97,13.17-14.57,17.05-19.25.58-.71,1.17-1.36,1.77-1.96.47-.47.94-.9,1.41-1.31.19-.16.38-.31.57-.46.35-.28.7-.54,1.06-.79.17-.12.35-.24.52-.35.52-.33,1.05-.64,1.58-.9,2.41-1.16,4.82-1.75,7.25-1.75,1.95,0,3.92.31,5.93.93,2.01.62,3.95,1.46,5.81,2.51,1.87,1.05,3.6,2.26,5.19,3.61,1.59,1.36,2.99,2.76,4.19,4.21,1.2,1.45,2.14,2.93,2.82,4.42.69,1.5,1.03,2.87,1.03,4.12,0,1.18-.25,2.36-.77,3.54-.51,1.18-1.05,2.22-1.63,3.11h56.77c-9.3-5.86-19.49-12.23-20.53-12.7-1.95-.88-3.89-1.59-5.84-2.15-1.95-.56-3.81-.84-5.6-.84-2.2,0-3.88.3-5.02.89-1.15.59-3.72,4.23-3.72,4.23l-3.72-2.34s.52-.75,2.09-3.03c1.56-2.28,3.25-4.15,5.05-5.62,1.8-1.47,3.65-2.54,5.55-3.23,1.9-.69,3.74-1.03,5.53-1.03,2.77,0,5.67.57,8.68,1.7,3.01,1.13,39.89,24.29,39.89,24.29l-6.75,9.71Zm-77.55-11.06c-.54-1.24-1.6-2.74-3.18-4.5-1.58-1.75-3.45-3.41-5.62-4.98-2.17-1.56-4.51-2.9-7.03-4.02-2.52-1.12-4.99-1.67-7.42-1.67-1.44,0-2.72.17-3.85.5-.17.05-.29.14-.45.2-.91.35-1.62.9-2.25,1.54-3.54,3.58-9.18,9.79-13.07,14.11h42.21l.67-1.2Z"/>
</svg>